<svg width="149" height="408" viewBox="0 0 149 408" fill="none" xmlns="http://www.w3.org/2000/svg">
<path d="M121.48 407.62C130.45 407.73 140.71 407.35 146.43 401.21C147.77 399.77 148.79 397.97 148.58 396.11C148.12 392.1 142.7 390.38 138.23 389.72C112.23 385.85 85.65 387.36 59.34 388.89C42.92 389.84 26.29 390.83 10.63 395.31C2.45999 397.65 -4.02002 403.71 6.27998 406.4C16.26 409 31.55 406.5 42.02 406.64C68.51 406.95 94.99 407.29 121.48 407.62Z" fill="url(#paint0_linear)"/>
<path d="M121.48 407.62C130.45 407.73 140.71 407.35 146.43 401.21C147.77 399.77 148.79 397.97 148.58 396.11C148.12 392.1 142.7 390.38 138.23 389.72C112.23 385.85 85.65 387.36 59.34 388.89C42.92 389.84 26.29 390.83 10.63 395.31C2.45999 397.65 -4.02002 403.71 6.27998 406.4C16.26 409 31.55 406.5 42.02 406.64C68.51 406.95 94.99 407.29 121.48 407.62Z" fill="url(#paint1_linear)"/>
<path d="M90.63 64.59C91.6 63.04 93.3599 61.99 95.2699 62.26C96.8599 62.48 98.3199 63.55 99.6199 64.67C102.5 67.15 105.02 70.05 107.83 72.62C111.02 75.54 114.55 78.02 117.96 80.63C123.86 85.15 129.47 90.13 134.71 95.49C136.1 96.92 137.52 98.45 138.15 100.32C139.21 103.45 137.61 106.76 134.99 108.09C132.36 109.42 128.99 109.04 126.02 107.77C123.05 106.5 120.39 104.41 117.82 102.3C108.8 94.88 100.29 86.74 92.4299 77.99C88.4899 73.64 87.82 69.09 90.63 64.59Z" fill="#DDE0DD"/>
<path d="M138.53 104.6C137.54 112.85 126.43 111.72 123.25 105.06C122.02 102.47 121.65 99.63 121.14 96.84C119.06 85.4 114.47 74.49 109.97 63.64C109.6 62.75 109.26 61.67 109.91 60.93C110.2 60.6 110.64 60.41 111.06 60.23C112.92 59.45 114.79 58.66 116.65 57.88C117.11 57.69 117.63 57.49 118.12 57.62C118.63 57.75 118.95 58.2 119.22 58.61C123.31 64.75 126.76 71.23 130.21 77.69C134.56 85.83 139.65 95.24 138.53 104.6Z" fill="#DDE0DD"/>
<path d="M105.77 55.05C105.45 54.67 105.11 54.28 105 53.81C104.88 53.34 105.06 52.77 105.53 52.57C105.72 52.49 105.96 52.46 106.06 52.29C106.14 52.14 106.08 51.96 106.01 51.81C105.64 50.95 105.28 50.09 104.91 49.23C104.53 48.33 104.14 47.41 104.06 46.44C103.86 43.9 106.11 41.49 108.78 41.19C111.45 40.89 114.17 42.57 115.17 44.94C115.62 46.02 115.75 47.2 115.9 48.35C116.35 51.88 117.03 55.38 117.93 58.84C118.12 59.57 111.94 61.48 110.95 60.96C110.16 60.54 109.54 59.44 109 58.8C107.91 57.54 106.83 56.3 105.77 55.05Z" fill="#F0E3DA"/>
<path d="M96.23 37.38C96.06 36.62 95.9099 35.81 96.1499 35.12C96.4099 34.38 97.5599 34.12 98.1799 33.75C100.05 32.65 102.04 31.78 104.11 31.14C104.7 30.96 105.34 30.8 105.96 31.04C106.93 31.42 107.46 32.62 107.87 33.68C110.12 39.55 112.61 45.27 115.19 51.01C115.39 51.46 115.63 52.25 115.66 52.74C115.69 53.14 115.59 53.52 115.45 53.86C114.78 55.51 112.82 55.93 111.32 56.63C110.63 56.95 109.93 57.27 109.19 57.45C108.44 57.64 107.63 58.04 106.86 58.15C106.38 58.22 105.83 58.4 105.58 58.23C105.06 57.89 104.16 56.38 103.9 55.77C103.53 54.92 103.15 54.08 102.76 53.24C101.21 49.93 99.97 46.65 98.6 43.27C97.83 41.41 96.67 39.33 96.23 37.38Z" fill="#333333"/>
<path d="M97.2799 38.35C97.1499 37.74 97.0599 37.08 97.2899 36.51C97.5399 35.9 98.5699 35.64 99.1399 35.32C100.84 34.36 102.63 33.58 104.48 32.98C105.01 32.81 105.58 32.66 106.12 32.83C106.97 33.11 107.4 34.06 107.72 34.91C109.5 39.62 111.51 44.19 113.58 48.78C113.74 49.14 113.92 49.78 113.93 50.17C113.94 50.49 113.84 50.81 113.7 51.09C113.04 52.46 111.3 52.87 109.94 53.5C109.32 53.79 108.69 54.07 108.02 54.24C107.35 54.42 106.62 54.77 105.93 54.89C105.5 54.96 105.01 55.13 104.79 55C104.35 54.74 103.6 53.54 103.39 53.06C103.1 52.38 102.79 51.7 102.47 51.04C101.22 48.4 100.24 45.77 99.1499 43.05C98.5499 41.58 97.5999 39.93 97.2799 38.35Z" fill="white"/>
<path d="M100.39 33.63C100.37 33.57 100.31 33.52 100.25 33.52V33.51C100.15 33.5 100.07 33.61 100.1 33.71C100.12 33.81 100.24 33.89 100.33 33.87C100.35 33.87 100.36 33.86 100.37 33.85C100.38 33.83 100.39 33.81 100.39 33.78C100.4 33.73 100.4 33.68 100.39 33.63Z" fill="#242424"/>
<path d="M100.62 33.53C100.59 33.47 100.61 33.4 100.65 33.35C100.69 33.3 100.74 33.28 100.79 33.25C101.12 33.09 101.46 32.95 101.79 32.81C101.85 32.78 101.92 32.76 101.99 32.77C102.06 32.78 102.13 32.83 102.15 32.91C102.17 33.02 102.06 33.09 101.97 33.12C101.71 33.22 101.46 33.32 101.2 33.42C101.09 33.45 100.7 33.71 100.62 33.53Z" fill="#242424"/>
<path d="M110.8 54.27C110.29 53.99 109.53 54.09 109.22 54.58C109.06 54.84 109.04 55.22 109.21 55.5C109.31 55.67 109.45 55.79 109.6 55.9C109.8 56.05 110.03 56.17 110.27 56.16C110.4 56.16 110.52 56.12 110.64 56.07C110.85 55.98 111.05 55.84 111.18 55.65C111.31 55.45 111.38 55.19 111.33 54.94C111.26 54.66 111.05 54.41 110.8 54.27Z" fill="#EAEAEA"/>
<path d="M97.03 52.71C100.96 47.53 102.73 41.01 103.12 34.57C103.54 27.54 102.28 20.14 97.94 14.58C93.61 9.01999 85.73 5.82999 79.04 8.31999C74.58 9.97999 71.26 13.82 69 17.97C63.19 28.64 63.83 42.25 70 52.56C72.51 56.75 76.11 61.8 81.34 61.91C87.02 62.03 93.85 56.9 97.03 52.71Z" fill="#F0E3DA"/>
<path d="M107.46 385.87C107.89 385.85 108.36 385.83 108.73 386.04C109.18 386.3 109.39 386.81 109.6 387.28C112.24 393.36 118.29 397.95 124.9 398.39C131.51 398.83 138.32 394.85 140.76 388.68C141.8 386.06 142.06 383.21 142.52 380.42C143.17 376.47 144.22 372.57 144.4 368.57C144.58 364.57 143.77 360.33 141.13 357.32C139.72 361.63 137.71 365.74 135.17 369.49C133.72 371.63 132.05 373.71 129.81 374.98C128.33 375.82 126.67 376.28 125.02 376.73C121.41 377.72 117.79 378.7 114.18 379.69C110.2 380.78 106.17 381.87 102.04 381.92C100.38 381.94 94.3899 383.1 97.5399 385.61C99.6799 387.31 105.05 386 107.46 385.87Z" fill="#2B2B2B"/>
<path d="M58.3699 388.53C57.2499 392 55.6899 395.47 52.9699 397.9C49.6699 400.83 44.95 401.87 40.58 401.26C36.2 400.65 32.1499 398.55 28.6399 395.86C26.2599 394.04 24.0799 391.92 22.4999 389.39C20.1299 385.59 19.22 381.07 18.63 376.63C17.67 369.31 17.5199 361.59 20.5299 354.84C23.5399 348.1 30.41 342.63 37.77 343.26C44.92 343.87 56.4699 350.29 58.7999 357.55C61.9399 367.4 61.5199 378.74 58.3699 388.53Z" fill="#2B2B2B"/>
<path d="M44.27 364.95C44.36 362.27 44.42 359.58 44.07 356.93C43.77 354.66 43.1399 352.36 41.6999 350.58C39.4999 347.87 35.81 346.87 32.33 346.58C31.51 346.51 30.67 346.47 29.89 346.74C29.07 347.03 28.41 347.63 27.77 348.21C26.3 349.55 24.82 350.91 23.7 352.55C22.49 354.33 21.73 356.37 21.14 358.44C19.22 365.11 18.8599 372.23 20.0899 379.06L20.35 380.29C21.23 383.05 21.8599 384.8 23.2299 387.36C24.3299 389.41 25.6299 391.42 27.5099 392.79C29.3899 394.16 32.8099 392.58 34.9299 391.62C36.1799 391.05 37.16 390.01 37.99 388.91C43.07 382.23 43.97 373.34 44.27 364.95Z" fill="#D9D9D9"/>
<path d="M35.0199 364.6C34.7599 363.76 34.4799 362.89 33.8599 362.27C32.5499 360.96 30.1699 361.39 28.8699 362.71C27.5699 364.03 27.0899 365.95 26.7899 367.78C26.2299 371.21 26.1399 374.93 27.8999 377.93C28.6499 379.21 29.9499 380.39 31.4299 380.25C33.2699 380.07 34.2699 378.07 34.9299 376.35C35.5299 374.79 36.1299 373.22 36.4599 371.58C36.9599 369.05 35.7599 366.97 35.0199 364.6Z" fill="#2B2B2B"/>
<path d="M137.59 345.52C135.95 344.27 134.04 343.42 132.1 342.71C128.48 341.38 124.52 340.49 120.76 341.38C116.34 342.42 112.82 345.77 110.11 349.42C108.38 351.76 106.81 354.34 104.36 355.91C102.98 356.8 101.19 357.23 99.5799 357.02C96.2999 358.07 92.0099 357.75 89.3999 357.74C84.7899 357.73 80.0899 357.41 75.4899 357.74C72.1299 357.98 68.9399 358.65 65.5699 358.18C65.3699 358.15 65.1899 358.1 65.0299 358.04C62.1799 357.66 61.1899 354.1 60.2399 351.36C59.1399 348.18 57.1999 345.28 54.6699 343.06C51.5899 340.34 47.5099 338.81 43.4199 338.63C40.1099 338.49 30.3699 341.48 28.4999 344.66C35.1699 343.2 42.6599 344.04 47.7199 346.53C50.5999 347.95 53.7199 352.46 55.7399 354.95C57.7899 357.47 58.7099 360.7 59.5799 363.83C60.8199 368.25 62.0599 372.84 61.4099 377.38C61.3299 377.93 61.2399 378.53 61.5399 378.99C61.7999 379.39 62.2899 379.56 62.7399 379.7C65.2899 380.49 67.9299 380.97 70.5699 381.44C76.7099 382.54 82.84 383.65 88.9799 384.75C90.27 384.98 91.58 385.22 92.89 385.14C94.68 385.03 96.3699 384.35 98.0799 383.83C101.99 382.62 106.08 382.18 110.14 381.63C116.57 380.77 123.07 379.61 128.91 376.8C134.76 373.98 139.96 369.29 142.1 363.17C144.25 357.04 142.75 349.46 137.59 345.52Z" fill="#E5E5E5"/>
<path d="M79.9599 359.7C83.3499 362.1 82.01 368.1 85.63 370.13C86.15 370.42 86.7 370.7 87.09 371.16C88.24 372.49 87.45 374.71 85.98 375.66C84.51 376.61 82.6499 376.65 80.8999 376.65C77.4299 376.66 73.96 376.67 70.5 376.68C69.17 376.68 67.59 376.56 66.91 375.42C66.42 374.61 66.5899 373.58 66.7099 372.64C66.9699 370.6 66.9 368.52 66.53 366.5C66.33 365.4 66.0299 364.31 65.6499 363.26C65.3999 362.56 63.63 360.41 64.29 360.23C67.71 359.34 78.4699 358.64 79.9599 359.7Z" fill="#2B2B2B"/>
<path d="M101.85 370.14C102.32 371.17 102.85 372.21 103.73 372.92C104.8 373.78 106.23 374.01 107.59 374.18C113.56 374.9 119.63 374.83 125.59 373.95C126.55 373.81 127.72 373.46 127.9 372.5C128.07 371.58 127.18 370.84 126.39 370.33C121.73 367.33 116.95 364.52 112.17 361.71C110.6 360.79 109.02 359.86 107.28 359.31C105.38 358.71 99.64 357.42 98.62 359.9C97.71 362.15 100.91 368.07 101.85 370.14Z" fill="#2B2B2B"/>
<path d="M105.68 35.21C105.01 34.41 104.59 33.43 104.28 32.44C104.02 31.59 104.05 28.56 103.59 26.63C104.22 23.11 104.55 19.53 104.51 15.95C104.48 13 103.98 12.57 102.97 9.77999C101.96 6.98999 100.2 5.83998 97.5999 4.25998C94.1399 2.14998 89.7199 2.07 85.6999 2.82C85.6199 2.84 85.5199 2.86 85.4399 2.87999C82.9399 1.61 79.3699 0.979991 77.3599 0.969991C74.4199 0.959991 71.5399 1.86999 68.9399 3.11999C65.4799 4.77998 62.3799 7.07998 59.7099 9.75998C58.2099 11.26 56.8399 12.88 55.7899 14.7C54.3499 17.19 53.5499 19.99 53.0199 22.8C52.8099 23.92 52.6299 25.06 52.7199 26.2C52.8499 27.9 53.5399 29.52 54.2299 31.1C56.9599 37.39 59.9999 44.04 65.8999 47.83C66.4299 48.17 67.1599 48.41 67.6599 48.15C68.5099 49.63 69.3999 51.09 70.2899 52.54C68.4099 49.1 69.3699 44.85 71.1699 41.39C71.6399 40.49 72.0899 39.23 71.2499 38.61C70.9899 38.42 70.6499 38.34 70.3599 38.18C69.0699 37.45 69.5299 35.59 70.1599 34.29C70.2299 34.15 70.3099 33.99 70.4699 33.95C70.6799 33.89 70.8699 34.07 71.0399 34.21C72.2699 35.21 74.1799 34.39 75.3299 33.31C77.2299 31.51 78.3899 29.1 79.0299 26.61C79.3499 25.36 79.5599 24.07 80.1699 22.93C80.7699 21.82 81.8999 20.81 83.2799 20.79C84.7299 20.77 85.3999 22.01 86.6899 22.29C89.3299 22.86 90.6399 19.46 93.5199 20.4C95.9699 21.2 96.9499 23.95 97.5999 26.35C98.6699 30.29 99.7499 34.22 100.82 38.16C101.26 37.05 101.53 35.9 101.72 34.74C101.92 34.98 102.14 35.21 102.36 35.43C102.76 35.84 103.16 36.25 103.65 36.55C105.02 37.39 106.8 37.19 108.37 36.8C107.31 36.64 106.35 36.02 105.68 35.21Z" fill="#8C6239"/>
<path d="M78.3 358.1C79.77 360.32 81.76 362.17 83.2 364.41C84.64 366.65 85.47 369.57 84.33 371.98C83.25 374.26 80.64 375.48 78.12 375.65C76.98 375.73 75.81 375.62 74.75 375.2C71.76 374.02 70.28 370.76 68.79 367.92C67.18 364.86 65.23 361.97 63.92 358.78C62.61 355.58 61.97 351.94 63.11 348.67C63.28 348.19 68.84 348.2 69.54 348.17C70.85 348.11 74.09 347.42 75.14 348.39C76.01 349.2 75.77 351.58 76.01 352.65C76.43 354.59 77.21 356.44 78.3 358.1Z" fill="#998675"/>
<path d="M118.06 359.75C119.53 360.38 121.15 360.78 122.38 361.8C124.74 363.77 124.82 367.66 123 370.13C122.58 370.71 122.06 371.23 121.43 371.57C120.46 372.1 119.31 372.15 118.21 372.17C115.58 372.22 112.95 372.11 110.33 371.86C109.53 371.78 108.69 371.68 107.99 371.28C107.49 370.99 107.09 370.57 106.7 370.14C104.3 367.55 101.98 364.79 100.7 361.51C99.12 357.47 99.22 353 99.51 348.67C99.53 348.42 99.55 348.15 99.73 347.97C99.9 347.79 100.17 347.76 100.41 347.73C102.82 347.47 105.56 347.05 107.98 347.34C110.18 347.6 109.83 349.43 110.37 351.18C111.53 354.98 114.44 358.19 118.06 359.75Z" fill="#998675"/>
<path d="M91.22 206.92C90.72 194.94 90.28 182.58 94.47 171.34C96.16 166.81 98.59 162.55 101.7 158.85C103.41 156.82 105.4 154.9 107.89 153.99C110.38 153.08 113.47 153.39 115.28 155.33C116.36 156.49 116.87 158.06 117.31 159.58C118.6 164.05 119.59 168.61 120.26 173.22C122.26 186.91 121.46 200.83 120.67 214.63C118.16 258.13 115.65 301.64 113.13 345.14C113.04 346.66 112.83 348.42 111.55 349.25C110.73 349.79 109.67 349.79 108.69 349.77C105.94 349.71 99.2 350.87 97.33 348.57C95.46 346.27 96.66 337.13 96.54 334.14C96.11 323.81 95.68 313.49 95.25 303.16C94.39 282.51 93.53 261.86 92.66 241.2C92.18 229.78 91.7 218.35 91.22 206.92Z" fill="#97A8B2"/>
<path d="M48.1799 179.33C47.8799 171.95 47.9199 163.69 52.4699 158.36C56.0299 154.19 61.49 152.96 66.6 152.4C70.68 151.95 75.1699 151.92 78.4299 154.73C81.9999 157.81 82.9599 163.31 83.5299 168.33C86.5199 194.71 85.4599 221.42 84.3999 247.99C83.0999 280.58 81.7899 313.16 80.4899 345.75C80.4199 347.53 80.18 349.62 78.79 350.46C78.09 350.88 77.2599 350.87 76.4599 350.85C73.6099 350.78 63.06 352.34 61.13 350.22C59.05 347.94 59.6399 336.22 59.3399 332.9C58.2099 320.49 57.0899 308.07 56.0099 295.65C53.8799 271 51.9199 246.33 50.3699 221.62C49.4899 207.54 48.7399 193.44 48.1799 179.33Z" fill="#97A8B2"/>
<path d="M80.9999 63.76C75.7099 63.36 70.2499 61.79 65.2199 63.55C58.4299 65.93 55.2799 73.27 53.2399 79.86C43.0799 112.81 40.7499 147.49 43.5899 181.42C44.0499 186.86 45.0399 192.97 49.7499 196.01C53.4299 198.38 58.3199 198.12 62.7999 197.67C80.6499 195.87 98.0399 201.54 115.27 196.51C119.21 195.36 123.42 193.92 125.8 190.69C128.29 187.29 124.75 173.8 124.31 169.74C122.79 155.75 116.11 144.61 113.1 130.88C109.44 114.22 113.1 94.82 108.25 78.46C106.78 73.49 105.95 64.43 100.01 62.44C94.5099 60.6 86.8299 64.2 80.9999 63.76Z" fill="#EBEFEB"/>
<path d="M107.52 173.34C105.68 172.81 103.6 173.04 101.64 173.27C93.9799 174.18 86.3199 175.09 78.6599 176C75.0399 176.43 71.3399 176.86 67.7199 176.42C66.2999 176.25 64.8599 175.94 63.4299 176.11C60.6099 176.44 58.8399 178.47 57.7799 180.38C57.3999 181.07 57.0499 181.85 57.3899 182.55C57.7299 183.26 59.0699 183.73 59.8499 183.24L61.6399 183.14C71.3699 183.37 75.3299 182.97 85.0599 182.72C88.6699 182.63 92.2899 182.5 95.8599 182.1C100.35 181.59 104.74 180.64 108.88 179.28C109.45 179.09 110.05 178.88 110.42 178.52C110.7 178.24 110.84 177.91 110.91 177.57C111.26 175.82 109.79 173.98 107.52 173.34Z" fill="#DBDBDB"/>
<path d="M99.1299 173.05C97.6199 172.31 96.24 171.19 95.51 169.67C95.02 168.65 94.8399 167.51 94.7499 166.38C94.5999 164.37 94.8799 162.06 96.4999 160.88C97.8499 159.9 99.75 160.03 101.26 160.74C102.77 161.45 103.98 162.65 105.21 163.78C108.3 166.62 111.7 169.17 115.51 170.95C118.79 172.49 122.33 173.43 125.63 174.93C126.93 175.52 128.24 176.23 129.15 177.34C130.02 178.39 130.47 179.8 130.27 181.15C130.07 182.5 129.17 183.75 127.92 184.28C127.31 184.54 126.65 184.62 125.99 184.67C122.44 184.93 118.81 184.13 115.7 182.39C113.53 181.18 111.63 179.53 109.46 178.32C107.62 177.3 105.61 176.58 103.99 175.2C102.57 174.01 100.79 173.87 99.1299 173.05Z" fill="#2B2B2B"/>
<path d="M84.04 247.64C83.1 260.84 83.38 274.34 83.15 287.57C82.91 301.68 84.2499 315.76 85.5799 329.81C86.5399 339.93 89.23 359.39 90.19 369.51C90.36 371.27 90.55 373.1 91.44 374.63C92.33 376.16 94.16 377.3 95.87 376.83C98.53 376.1 98.92 372.55 98.78 369.8C97.17 338.63 95.39 299.51 93.78 268.33C93.49 262.71 93.45 257.97 93.75 252.35C94.04 247.04 93.4999 241.43 93.6099 234.18C93.9899 208.15 92.21 201.32 88.21 176.38C87.85 174.11 87.39 171.66 85.71 170.08C80.69 165.36 78.95 173.19 80.5 176.75C83.12 182.78 83.65 188.42 84.26 195.08C85.68 210.55 85.14 206.47 85.02 222.01C84.97 230.56 84.65 239.11 84.04 247.64Z" fill="#D9D9D9"/>
<path d="M65.11 176.57C67.43 174.84 70.01 173.41 72.02 171.33C72.81 170.51 73.54 169.46 73.39 168.34C73.29 167.58 72.8 166.94 72.33 166.33C71.17 164.84 69.73 163.2 67.84 163.24C65.79 163.28 64.4 165.25 63.11 166.85C59.52 171.32 46.42 178.17 47.68 184.89C49.5 194.5 62.79 178.3 65.11 176.57Z" fill="#2B2B2B"/>
<path d="M72.2699 63.59C75.0099 65.16 76.5999 68.37 77.2199 71.59C77.8299 74.81 77.6199 78.14 77.6499 81.43C77.6999 86.87 78.4099 92.27 79.1099 97.66C81.5599 116.34 84.0099 135.03 86.4699 153.71C86.5799 154.58 86.6599 155.59 86.0799 156.23C85.7099 156.63 85.16 156.78 84.6399 156.91C74.7599 159.3 64.6599 160.72 54.5299 161.15C51.5199 161.28 48.4499 161.31 45.5699 160.41C43.9299 159.9 42.2599 158.99 41.4999 157.37C41.0099 156.33 40.9499 155.13 40.9099 153.97C40.1699 129.07 46.3099 104.59 52.3999 80.52C53.1599 77.5 53.9399 74.45 55.4399 71.75C58.6599 65.97 65.5999 59.76 72.2699 63.59Z" fill="#333333"/>
<path d="M60.17 64.57C56.5 64.41 53.25 67.23 50.67 70.13C45.16 76.34 40.85 83.62 36.58 90.86C31.48 99.5 26.3799 108.13 21.2899 116.77C19.8199 119.25 18.29 122.02 18.67 124.88C18.81 125.99 19.24 127.03 19.67 128.04C25.03 140.78 31.02 153.19 37.6 165.23C38.05 166.05 38.54 166.92 39.34 167.35C40.4799 167.97 41.8899 167.51 43.09 166.95C45.07 166.02 47.13 164.54 47.58 162.29C47.87 160.85 47.43 159.4 47 158.03C45.28 152.54 43.57 147.05 41.85 141.57C39.59 134.33 37.3399 126.29 40.1799 119.11C42.5499 113.1 47.94 109.15 51.89 104.15C54.54 100.8 56.58 96.9 59.49 93.81C62.45 90.67 66.3 88.38 68.42 84.54C72.36 77.42 68.64 64.95 60.17 64.57Z" fill="#DDE0DD"/>
<path d="M43.81 172.07C44.88 174.41 45.96 176.75 47.03 179.09C47.47 180.06 47.92 181.03 48.51 181.92C48.87 182.46 49.29 182.97 49.82 183.35C50.84 184.09 52.16 184.28 53.42 184.26C54.98 184.23 56.65 183.83 57.65 182.64C58.56 181.56 58.75 179.98 58.36 178.62C57.97 177.26 57.08 176.08 56.06 175.11C55.78 174.84 55.46 174.47 55.62 174.12C55.68 173.98 55.81 173.88 55.91 173.76C56.35 173.27 56.27 172.48 55.94 171.91C55.61 171.34 55.07 170.93 54.57 170.5C53.31 169.4 52.26 168.09 51.21 166.78C50.08 165.36 48.95 163.94 47.82 162.53C47.62 162.28 47.38 162.02 47.07 162.02C46.81 162.02 46.6 162.21 46.41 162.38C45.6 163.12 44.72 163.77 43.78 164.34C42.68 165.01 41.27 165.88 41.79 167.36C42.34 168.96 43.1 170.53 43.81 172.07Z" fill="#F0E3DA"/>
<path d="M92.65 76.18C95.59 84.94 96.52 94.22 97.44 103.41C99.01 119.15 100.58 134.88 102.14 150.62C102.2 151.23 102.27 151.86 102.63 152.36C102.99 152.85 103.58 153.12 104.15 153.34C108.9 155.19 114.21 155.57 119.17 154.42C119.83 154.27 120.59 153.98 120.76 153.33C120.84 153.02 120.76 152.7 120.68 152.39C118.49 143.76 115.59 135.28 114.38 126.46C113.87 122.73 113.66 118.97 113.48 115.21C112.83 101.71 112.5 88.06 109.15 74.97C107.91 70.12 106.09 65.12 102.22 61.95C99.01 59.32 93.09 58.12 89.71 61.16C86.39 64.11 91.44 72.56 92.65 76.18Z" fill="#333333"/>
<path d="M68.26 134.21C69.45 134.1 70.65 133.98 71.76 133.56C72.83 133.16 73.82 132.49 74.95 132.37C75.24 132.34 75.5599 132.35 75.7999 132.52C75.9799 132.65 76.0999 132.85 76.2099 133.05C76.9799 134.54 77.2099 136.3 76.8599 137.94C68.1999 138.27 59.55 138.78 50.91 139.46C50.64 139.48 50.66 136.23 51.46 135.82C52.76 135.15 55.47 135.43 56.95 135.29C60.73 134.92 64.5 134.57 68.26 134.21Z" fill="#292929"/>
<path d="M72.1999 115.54C72.7799 115.48 73.4099 115.39 73.7999 114.96C74.6999 113.98 73.5599 112.45 73.6499 111.12C66.2499 110.81 59.0299 113.92 51.6399 113.64C51.4699 113.63 51.2799 113.63 51.1399 113.73C50.9499 113.88 50.9399 114.16 50.9499 114.4C50.9799 114.91 50.7799 116.73 51.1399 117.09C51.5299 117.49 53.1999 117.11 53.7399 117.08C55.8099 116.96 57.8799 116.82 59.9499 116.66C64.0199 116.35 68.1499 116.11 72.1999 115.54Z" fill="#292929"/>
<path d="M113.98 130.46C114.67 130.46 115.46 130.5 115.9 131.03C116.16 131.34 116.25 131.76 116.32 132.16C116.44 132.81 116.57 133.47 116.69 134.12C116.72 134.29 116.75 134.48 116.67 134.63C116.61 134.73 116.51 134.8 116.41 134.86C115.82 135.19 115.11 135.23 114.43 135.25C112.25 135.3 110.07 135.25 107.9 135.09C107.59 135.07 107.24 135.03 107.03 134.8C106.87 134.63 106.81 134.38 106.76 134.15C106.43 132.65 105.64 130.85 107.65 130.47C109.6 130.1 111.99 130.46 113.98 130.46Z" fill="#292929"/>
<path d="M113.7 111.43C113.8 111.42 113.9 111.41 113.98 111.36C114.15 111.25 114.17 111.01 114.17 110.8C114.16 109.58 114.1 108.37 113.99 107.16C113.97 106.9 113.93 106.62 113.73 106.46C113.49 106.26 113.14 106.33 112.84 106.41C109.69 107.26 106.48 108.43 103.25 107.96C103.29 107.97 103.45 111.25 103.63 111.6C104.14 112.57 104.61 112.37 105.73 112.26C108.39 111.98 111.04 111.7 113.7 111.43Z" fill="#292929"/>
<defs>
<linearGradient id="paint0_linear" x1="0.970883" y1="397.451" x2="148.608" y2="397.451" gradientUnits="userSpaceOnUse">
<stop stop-color="#4D4D4D"/>
<stop offset="1"/>
</linearGradient>
<linearGradient id="paint1_linear" x1="0.970883" y1="397.451" x2="148.608" y2="397.451" gradientUnits="userSpaceOnUse">
<stop/>
<stop offset="1"/>
</linearGradient>
</defs>
</svg>
